<?xml version="1.0" encoding="UTF-8" standalone="no"?>
<!-- Created with Inkscape (http://www.inkscape.org/) -->

<svg
   xmlns:dc="http://purl.org/dc/elements/1.1/"
   xmlns:cc="http://creativecommons.org/ns#"
   xmlns:rdf="http://www.w3.org/1999/02/22-rdf-syntax-ns#"
   xmlns:svg="http://www.w3.org/2000/svg"
   xmlns="http://www.w3.org/2000/svg"
   xmlns:sodipodi="http://sodipodi.sourceforge.net/DTD/sodipodi-0.dtd"
   xmlns:inkscape="http://www.inkscape.org/namespaces/inkscape"
   width="64"
   height="64"
   viewBox="0 0 64.000001 64.000001"
   id="svg2"
   version="1.1"
   inkscape:version="0.91 r13725"
   sodipodi:docname="UpCheck.svg"
   inkscape:export-filename="/home/emanuel/Prog/ltu/d7031e/up-check/src/main/resources/icon/icon_256x256.png"
   inkscape:export-xdpi="360"
   inkscape:export-ydpi="360">
  <defs
     id="defs4" />
  <sodipodi:namedview
     id="base"
     pagecolor="#ffffff"
     bordercolor="#666666"
     borderopacity="1.0"
     inkscape:pageopacity="0.0"
     inkscape:pageshadow="2"
     inkscape:zoom="14.359375"
     inkscape:cx="34.17269"
     inkscape:cy="36.63065"
     inkscape:document-units="px"
     inkscape:current-layer="g4162"
     showgrid="true"
     units="px"
     inkscape:window-width="1855"
     inkscape:window-height="1056"
     inkscape:window-x="65"
     inkscape:window-y="24"
     inkscape:window-maximized="1">
    <inkscape:grid
       type="xygrid"
       id="grid4147"
       empspacing="4" />
  </sodipodi:namedview>
  <metadata
     id="metadata7">
    <rdf:RDF>
      <cc:Work
         rdf:about="">
        <dc:format>image/svg+xml</dc:format>
        <dc:type
           rdf:resource="http://purl.org/dc/dcmitype/StillImage" />
        <dc:title></dc:title>
      </cc:Work>
    </rdf:RDF>
  </metadata>
  <g
     inkscape:label="Layer 1"
     inkscape:groupmode="layer"
     id="layer1"
     transform="translate(0,-988.36216)">
    <g
       id="g4162"
       transform="translate(2,0)">
      <circle
         style="opacity:1;fill:#ffffff;fill-opacity:1;stroke:none;stroke-width:3;stroke-linecap:butt;stroke-linejoin:miter;stroke-miterlimit:4;stroke-dasharray:none;stroke-dashoffset:0;stroke-opacity:1"
         id="path7217"
         cx="30"
         cy="1020.3622"
         r="28" />
      <path
         style="opacity:1;fill:#255f86;fill-opacity:1;stroke:none;stroke-width:3;stroke-linecap:butt;stroke-linejoin:miter;stroke-miterlimit:4;stroke-dasharray:none;stroke-dashoffset:0;stroke-opacity:1"
         d="m 30,994.51598 a 25.846154,25.846154 0 0 0 -16.082332,5.61392 l 0,14.7404 c 0,3.0041 1.606651,4.5096 4.818811,4.5096 3.21216,0 4.818809,-1.5055 4.818809,-4.5096 l 0,-17.12359 5.19952,0 0,17.12359 c 0,1.3634 -0.21928,2.5884 -0.658354,3.6746 -0.415962,1.063 -0.959945,1.9191 -1.630108,2.5661 -0.670164,0.647 -1.46506,1.1784 -2.389423,1.5943 -0.901254,0.416 -1.79313,0.7049 -2.671274,0.8666 -0.855036,0.1618 -1.744807,0.244 -2.66917,0.244 -0.924362,0 -1.824681,-0.082 -2.702825,-0.244 -0.855036,-0.1617 -1.74481,-0.4506 -2.669171,-0.8666 -0.901256,-0.4159 -1.687708,-0.9473 -2.357873,-1.5943 -0.670161,-0.647 -1.2246885,-1.5031 -1.6637618,-2.5661 -0.4159627,-1.0862 -0.6246994,-2.3112 -0.6246994,-3.6746 l 0,-9.1686 a 25.846154,25.846154 0 0 0 -4.5643026,14.6605 25.846154,25.846154 0 0 0 3.6787864,13.2343 c 0.00251,-1.4786 0.36421,-2.6276 1.0832328,-3.4431 0.7215384,-0.8185 1.7341806,-1.2285 3.0372606,-1.2285 1.087691,0 1.96572,0.3035 2.633412,0.9066 0.678462,0.6031 1.054123,1.4368 1.129508,2.503 l -2.164364,0 c -0.129231,-0.5708 -0.318112,-0.9747 -0.565804,-1.2116 -0.236924,-0.2477 -0.586504,-0.3723 -1.04958,-0.3723 -1.227691,0 -1.840445,0.9545 -1.840445,2.8607 0,0.8507 0.160698,1.5178 0.483775,2.0024 0.333846,0.4846 0.785901,0.7278 1.35667,0.7278 0.44154,0 0.787164,-0.1186 1.034856,-0.3555 0.247692,-0.2477 0.440529,-0.6516 0.580528,-1.2116 l 2.164364,0 c -0.107693,1.0447 -0.505481,1.8724 -1.194712,2.4862 -0.678462,0.6031 -1.544374,0.9044 -2.599759,0.9044 -0.243585,0 -0.466496,-0.026 -0.689904,-0.055 A 25.846154,25.846154 0 0 0 30,1046.2084 a 25.846154,25.846154 0 0 0 20.074519,-9.5998 l -1.440805,-2.6588 -0.904447,0.9845 0,2.8606 -2.263221,0 0,-11.7768 2.263221,0 0,6.4447 2.858474,-3.3906 2.568208,0 -2.972054,3.2938 1.33774,2.2822 a 25.846154,25.846154 0 0 0 4.324519,-14.286 25.846154,25.846154 0 0 0 -2.359976,-10.7125 c -0.338564,0.8311 -0.793034,1.5758 -1.379808,2.2212 -1.388031,1.5268 -3.2395,2.2905 -5.552884,2.2905 l -6.48678,0 0,9.0214 -5.207932,0 0,-25.29728 7.86869,0 A 25.846154,25.846154 0 0 0 30,994.51598 Z m 23.486178,15.13372 a 25.846154,25.846154 0 0 0 -1.167368,-2.259 25.846154,25.846154 0 0 1 1.167368,2.259 z m -3.411659,26.9589 a 25.846154,25.846154 0 0 0 1.440806,-1.952 25.846154,25.846154 0 0 1 -1.440806,1.952 z m -6.486778,-38.19506 a 25.846154,25.846154 0 0 1 1.714242,1.15683 25.846154,25.846154 0 0 0 -1.714242,-1.15683 z m 2.092848,1.44286 a 25.846154,25.846154 0 0 1 1.661659,1.3819 25.846154,25.846154 0 0 0 -1.661659,-1.3819 z m -31.792368,0.3008 a 25.846154,25.846154 0 0 0 -1.909856,1.6806 25.846154,25.846154 0 0 1 1.909856,-1.6806 z m -1.909856,1.6806 a 25.846154,25.846154 0 0 0 -1.758414,1.8909 25.846154,25.846154 0 0 1 1.758414,-1.8909 z m 35.616287,-0.3639 a 25.846154,25.846154 0 0 1 1.609074,1.6344 25.846154,25.846154 0 0 0 -1.609074,-1.6344 z m -7.527946,0.7488 0,7.5995 4.856672,0 c 2.706659,0 4.061598,-1.2602 4.061598,-3.7819 0,-1.2954 -0.33663,-2.2527 -1.007512,-2.8773 -0.647748,-0.6246 -1.666056,-0.9403 -3.054086,-0.9403 l -4.856672,0 z m 9.282152,1.0517 a 25.846154,25.846154 0 0 1 1.516527,1.8867 25.846154,25.846154 0 0 0 -1.516527,-1.8867 z m 1.567007,1.9582 a 25.846154,25.846154 0 0 1 1.367188,2.0971 25.846154,25.846154 0 0 0 -1.367188,-2.0971 z m -33.655949,20.7855 2.263221,0 0,4.314 c 0.624615,-0.9369 1.474459,-1.4072 2.551382,-1.4072 0.344616,0 0.668114,0.051 0.969652,0.1473 0.312308,0.086 0.613677,0.2369 0.904446,0.4522 0.301539,0.2047 0.538631,0.516 0.710939,0.936 0.172312,0.42 0.258713,0.9164 0.258713,1.4871 l 0,5.8474 -2.261117,0 0,-5.3321 c 0,-1.0769 -0.464171,-1.6154 -1.390325,-1.6154 -0.506154,0 -0.92607,0.1629 -1.259916,0.486 -0.323077,0.323 -0.483774,0.7308 -0.483774,1.2261 l 0,5.2354 -2.263221,0 0,-11.7768 z m 13.383714,2.9068 c 0.376927,0 0.744676,0.044 1.10006,0.1304 0.355385,0.086 0.714976,0.243 1.08113,0.4691 0.376923,0.2262 0.700421,0.5155 0.969652,0.8708 0.279999,0.3447 0.507079,0.8088 0.679386,1.3904 0.172312,0.5707 0.258714,1.2278 0.258714,1.9708 0,0.1293 -0.006,0.2577 -0.01683,0.387 l -5.847356,0 c 0.01077,0.3338 0.03685,0.6252 0.07993,0.8729 0.05385,0.2369 0.140252,0.474 0.258713,0.7109 0.129231,0.2262 0.312056,0.403 0.548979,0.5322 0.247692,0.1185 0.555119,0.1788 0.921273,0.1788 0.861539,0 1.438197,-0.3678 1.728967,-1.1001 l 2.227463,0 c -0.247692,0.8615 -0.735841,1.5507 -1.468149,2.0676 -0.732307,0.5061 -1.590312,0.7593 -2.570312,0.7593 -1.238462,0 -2.212908,-0.3978 -2.923677,-1.1947 -0.71077,-0.8077 -1.066407,-1.9107 -1.066407,-3.3107 0,-1.4646 0.361695,-2.6179 1.083234,-3.4579 0.721538,-0.8507 1.705996,-1.2768 2.955227,-1.2768 z m 9.515625,0 c 1.087692,0 1.965721,0.3035 2.633413,0.9066 0.678462,0.6031 1.054122,1.4368 1.129507,2.503 l -2.164362,0 c -0.129231,-0.5708 -0.318114,-0.9747 -0.565806,-1.2116 -0.236923,-0.2477 -0.586502,-0.3723 -1.049579,-0.3723 -1.227692,0 -1.840445,0.9545 -1.840445,2.8607 0,0.8507 0.160697,1.5178 0.483774,2.0024 0.333846,0.4846 0.785902,0.7278 1.356671,0.7278 0.441539,0 0.787163,-0.1186 1.034855,-0.3555 0.247693,-0.2477 0.44053,-0.6516 0.58053,-1.2116 l 2.164362,0 c -0.107692,1.0447 -0.505481,1.8724 -1.194711,2.4862 -0.678462,0.6031 -1.544375,0.9044 -2.59976,0.9044 -1.292307,0 -2.300998,-0.3978 -3.022536,-1.1947 -0.710769,-0.7969 -1.066406,-1.916 -1.066406,-3.359 0,-1.4862 0.361694,-2.6395 1.083233,-3.4579 0.721538,-0.8185 1.734183,-1.2285 3.03726,-1.2285 z m -9.547176,1.729 c -0.990769,0 -1.561369,0.6631 -1.712139,1.9877 l 3.472656,0 c -0.05385,-0.6354 -0.230613,-1.1256 -0.532152,-1.4702 -0.290769,-0.3446 -0.700673,-0.5175 -1.228365,-0.5175 z m -22.7710335,2.9574 a 25.846154,25.846154 0 0 0 1.3146033,1.9792 25.846154,25.846154 0 0 1 -1.3146033,-1.9792 z m 1.4828725,2.2169 a 25.846154,25.846154 0 0 0 1.352465,1.6512 25.846154,25.846154 0 0 1 -1.352465,-1.6512 z"
         id="path7172"
         inkscape:connector-curvature="0" />
    </g>
  </g>
</svg>
